<svg width="393" height="3123" viewBox="0 0 393 3123" fill="none" xmlns="http://www.w3.org/2000/svg">
<circle cx="20.5521" cy="302.477" r="108.475" transform="rotate(86.1694 20.5521 302.477)" fill="#F9C74F"/>
<circle cx="20.272" cy="302.335" r="77.4818" transform="rotate(86.1694 20.272 302.335)" fill="#F8961E"/>
<circle cx="20.5011" cy="302.291" r="46.4891" transform="rotate(90 20.5011 302.291)" fill="#F3722C"/>
<circle cx="42.1961" cy="975.453" r="68.184" fill="#577590"/>
<circle cx="41.5763" cy="975.453" r="48.3487" fill="#43AA8B"/>
<ellipse cx="81.1313" cy="86.0362" rx="81.1313" ry="86.0362" transform="matrix(0.0708637 0.997486 -0.998015 0.0629807 226.731 655)" fill="#F9C74F"/>
<ellipse cx="57.9509" cy="61.4544" rx="57.9509" ry="61.4544" transform="matrix(0.0708637 0.997486 -0.998015 0.0629807 203.806 679.693)" fill="#F8961E"/>
<ellipse cx="146.429" cy="741.16" rx="34.7119" ry="36.8813" transform="rotate(90 146.429 741.16)" fill="#F3722C"/>
<ellipse cx="-3.98309" cy="400.847" rx="53.6174" ry="51.4479" fill="#577590"/>
<ellipse cx="-3.98312" cy="400.847" rx="38.1211" ry="36.8373" fill="#43AA8B"/>
<ellipse cx="124.234" cy="132.602" rx="124.234" ry="132.602" transform="matrix(0.0713262 0.997453 -0.99804 0.0625719 119.684 2858.57)" fill="#F9C74F"/>
<ellipse cx="88.7389" cy="94.7155" rx="88.7389" ry="94.7155" transform="matrix(0.0713262 0.997453 -0.99804 0.0625719 84.3506 2896.38)" fill="#F8961E"/>
<ellipse cx="-3.98306" cy="2990.6" rx="53.3075" ry="56.7167" transform="rotate(90 -3.98306 2990.6)" fill="#F3722C"/>
<ellipse cx="-7.39228" cy="2907.54" rx="68.184" ry="71.2833" fill="#577590"/>
<ellipse cx="-7.3923" cy="2907.54" rx="48.3487" ry="50.8281" fill="#43AA8B"/>
<ellipse cx="-9.56176" cy="2030.14" rx="88.3293" ry="79.0315" fill="#577590"/>
<ellipse cx="-9.56177" cy="2030.14" rx="62.8006" ry="56.5875" fill="#43AA8B"/>
<circle cx="389.608" cy="68.184" r="68.184" fill="#577590"/>
<circle cx="389.608" cy="68.184" r="48.3487" fill="#43AA8B"/>
<ellipse cx="50.2279" cy="47.3426" rx="50.2279" ry="47.3426" transform="matrix(0.0629516 0.998017 -0.997484 0.0708965 422.981 1091.28)" fill="#F8961E"/>
<ellipse cx="378.76" cy="1144.56" rx="30.063" ry="28.2034" transform="rotate(90 378.76 1144.56)" fill="#F3722C"/>
<ellipse cx="374.111" cy="2494.92" rx="68.184" ry="71.2833" fill="#577590"/>
<ellipse cx="374.111" cy="2494.92" rx="48.3487" ry="50.8281" fill="#43AA8B"/>
<ellipse cx="124.234" cy="132.602" rx="124.234" ry="132.602" transform="matrix(0.0713262 0.997453 -0.99804 0.0625719 516.684 348.978)" fill="#F9C74F"/>
<ellipse cx="88.7389" cy="94.7155" rx="88.7389" ry="94.7155" transform="matrix(0.0713262 0.997453 -0.99804 0.0625719 481.351 386.789)" fill="#F8961E"/>
<ellipse cx="393.017" cy="481.007" rx="53.3075" ry="56.7167" transform="rotate(90 393.017 481.007)" fill="#F3722C"/>
<ellipse cx="433.617" cy="1604.8" rx="138.847" ry="134.508" fill="#577590"/>
<ellipse cx="433.617" cy="1604.8" rx="98.7181" ry="96.3097" fill="#43AA8B"/>
<ellipse cx="82.4039" cy="85.5777" rx="82.4039" ry="85.5777" transform="matrix(0.0693915 0.99759 -0.997929 0.064318 446.355 1612.86)" fill="#F9C74F"/>
<ellipse cx="58.8599" cy="61.1269" rx="58.8599" ry="61.1269" transform="matrix(0.0693915 0.99759 -0.997929 0.064318 423.555 1637.95)" fill="#F8961E"/>
<ellipse cx="366.553" cy="1700.45" rx="35.3633" ry="36.5994" transform="rotate(90 366.553 1700.45)" fill="#F3722C"/>
</svg>
