<svg width="834" height="5029" viewBox="0 0 834 5029" fill="none" xmlns="http://www.w3.org/2000/svg">
<circle cx="826" cy="110" r="110" fill="#577590"/>
<circle cx="826" cy="110" r="78" fill="#43AA8B"/>
<ellipse cx="81.0318" cy="76.377" rx="81.0318" ry="76.377" transform="matrix(0.0629516 0.998017 -0.997484 0.0708965 879.841 1760.55)" fill="#F8961E"/>
<ellipse cx="808.5" cy="1846.5" rx="48.5" ry="45.5" transform="rotate(90 808.5 1846.5)" fill="#F3722C"/>
<ellipse cx="801" cy="4025" rx="110" ry="115" fill="#577590"/>
<ellipse cx="801" cy="4025" rx="78" ry="82" fill="#43AA8B"/>
<ellipse cx="200.425" cy="213.924" rx="200.425" ry="213.924" transform="matrix(0.0713262 0.997453 -0.99804 0.0625719 1031.01 563)" fill="#F9C74F"/>
<ellipse cx="143.161" cy="152.803" rx="143.161" ry="152.803" transform="matrix(0.0713262 0.997453 -0.99804 0.0625719 974.007 624)" fill="#F8961E"/>
<ellipse cx="831.5" cy="776" rx="86" ry="91.5" transform="rotate(90 831.5 776)" fill="#F3722C"/>
<ellipse cx="897" cy="2589" rx="224" ry="217" fill="#577590"/>
<ellipse cx="897" cy="2589" rx="159.26" ry="155.375" fill="#43AA8B"/>
<ellipse cx="132.941" cy="138.061" rx="132.941" ry="138.061" transform="matrix(0.0693915 0.99759 -0.997929 0.064318 917.55 2602)" fill="#F9C74F"/>
<ellipse cx="94.9576" cy="98.6149" rx="94.9576" ry="98.6149" transform="matrix(0.0693915 0.99759 -0.997929 0.064318 880.766 2642.47)" fill="#F8961E"/>
<ellipse cx="788.806" cy="2743.3" rx="57.051" ry="59.0451" transform="rotate(90 788.806 2743.3)" fill="#F3722C"/>
<circle cx="56.0822" cy="478.3" r="175" transform="rotate(86.1694 56.0822 478.3)" fill="#F9C74F"/>
<circle cx="55.6301" cy="478.072" r="125" transform="rotate(86.1694 55.6301 478.072)" fill="#F8961E"/>
<circle cx="56" cy="478" r="75" transform="rotate(90 56 478)" fill="#F3722C"/>
<circle cx="91" cy="1564" r="110" fill="#577590"/>
<circle cx="90" cy="1564" r="78" fill="#43AA8B"/>
<ellipse cx="130.888" cy="138.801" rx="130.888" ry="138.801" transform="matrix(0.0708637 0.997486 -0.998015 0.0629807 453.05 1185)" fill="#F9C74F"/>
<ellipse cx="93.4911" cy="99.1433" rx="93.4911" ry="99.1433" transform="matrix(0.0708637 0.997486 -0.998015 0.0629807 416.066 1224.84)" fill="#F8961E"/>
<ellipse cx="323.501" cy="1324" rx="56" ry="59.5" transform="rotate(90 323.501 1324)" fill="#F3722C"/>
<ellipse cx="16.5" cy="637" rx="86.5" ry="83" fill="#577590"/>
<ellipse cx="16.5" cy="637" rx="61.5" ry="59.429" fill="#43AA8B"/>
<ellipse cx="200.425" cy="213.924" rx="200.425" ry="213.924" transform="matrix(0.0713262 0.997453 -0.99804 0.0625719 216.009 4602)" fill="#F9C74F"/>
<ellipse cx="143.161" cy="152.803" rx="143.161" ry="152.803" transform="matrix(0.0713262 0.997453 -0.99804 0.0625719 159.007 4663)" fill="#F8961E"/>
<ellipse cx="16.5001" cy="4815" rx="86" ry="91.5" transform="rotate(90 16.5001 4815)" fill="#F3722C"/>
<ellipse cx="11" cy="4681" rx="110" ry="115" fill="#577590"/>
<ellipse cx="11" cy="4681" rx="78" ry="82" fill="#43AA8B"/>
<ellipse cx="7.5" cy="3265.5" rx="142.5" ry="127.5" fill="#577590"/>
<ellipse cx="7.49996" cy="3265.5" rx="101.315" ry="91.2915" fill="#43AA8B"/>
</svg>
