<svg width="50" height="50" viewBox="0 0 50 50" fill="none" xmlns="http://www.w3.org/2000/svg">
<circle cx="25" cy="25" r="25" fill="#F3722C"/>
<path fill-rule="evenodd" clip-rule="evenodd" d="M22.5761 14.9361C23.8714 13.7094 25.6282 13.0202 27.4601 13.02H31.0126C31.2744 13.02 31.5254 13.1185 31.7104 13.2937C31.8955 13.4689 31.9995 13.7066 31.9995 13.9544V18.4392C31.9995 18.687 31.8955 18.9247 31.7104 19.0999C31.5254 19.2751 31.2744 19.3736 31.0126 19.3736H27.4601C27.4342 19.3736 27.4086 19.3784 27.3846 19.3878C27.3607 19.3972 27.3389 19.4109 27.3206 19.4283C27.3023 19.4457 27.2877 19.4663 27.2778 19.4889C27.2679 19.5116 27.2628 19.5359 27.2628 19.5604V21.9897H31.0126C31.1627 21.9897 31.3107 22.022 31.4456 22.0842C31.5804 22.1464 31.6985 22.237 31.7909 22.3489C31.8832 22.4609 31.9474 22.5913 31.9785 22.7302C32.0097 22.8692 32.0069 23.013 31.9705 23.1508L30.7863 27.6357C30.7329 27.8379 30.6096 28.0174 30.4361 28.1456C30.2625 28.2738 30.0486 28.3434 29.8285 28.3433H27.2628V36.3787C27.2628 36.6265 27.1588 36.8641 26.9738 37.0393C26.7887 37.2146 26.5377 37.313 26.276 37.313H21.5393C21.2776 37.313 21.0266 37.2146 20.8415 37.0393C20.6565 36.8641 20.5525 36.6265 20.5525 36.3787V28.3433H17.9868C17.7251 28.3433 17.4741 28.2448 17.289 28.0696C17.104 27.8944 17 27.6567 17 27.4089V22.9241C17 22.8014 17.0255 22.6799 17.0751 22.5665C17.1247 22.4532 17.1974 22.3502 17.289 22.2634C17.3807 22.1766 17.4894 22.1078 17.6092 22.0609C17.7289 22.0139 17.8572 21.9897 17.9868 21.9897H20.5525V19.5604C20.5527 17.8259 21.2806 16.1625 22.5761 14.9361ZM27.4601 14.8887C26.1516 14.8887 24.8966 15.3809 23.9713 16.257C23.0459 17.1331 22.5261 18.3214 22.5261 19.5604V22.9241C22.5261 23.1719 22.4221 23.4095 22.2371 23.5848C22.052 23.76 21.801 23.8584 21.5393 23.8584H18.9736V26.4746H21.5393C21.801 26.4746 22.052 26.573 22.2371 26.7483C22.4221 26.9235 22.5261 27.1611 22.5261 27.4089V35.4443H25.2892V27.4089C25.2892 27.1611 25.3931 26.9235 25.5782 26.7483C25.7633 26.573 26.0143 26.4746 26.276 26.4746H29.0575L29.7482 23.8584H26.276C26.0143 23.8584 25.7633 23.76 25.5782 23.5848C25.3931 23.4095 25.2892 23.1719 25.2892 22.9241V19.5604C25.2892 19.0153 25.5179 18.4924 25.925 18.1069C26.3322 17.7214 26.8844 17.5049 27.4601 17.5049H30.0258V14.8887H27.4601Z" fill="white"/>
</svg>
