<svg width="50" height="50" viewBox="0 0 50 50" fill="none" xmlns="http://www.w3.org/2000/svg">
<circle cx="25" cy="25" r="25" fill="#F3722C"/>
<path d="M25 13.0323C22.8702 13.0323 21.3403 13.0565 20.4104 13.1049C19.5856 13.1348 18.7685 13.2724 17.9806 13.514C17.1777 13.7945 16.4508 14.2477 15.8408 14.8383C15.2309 15.4289 14.7809 16.142 14.491 16.9367C14.2447 17.7096 14.1045 18.5112 14.074 19.3205C14.024 20.2367 14 21.7337 14 23.8233C14 25.9128 14.0247 27.4137 14.074 28.3261C14.104 29.1354 14.244 29.9349 14.491 30.7099C14.778 31.4986 15.2389 32.2154 15.8408 32.8092C16.4368 33.3978 17.1707 33.8393 17.9806 34.0845C18.7616 34.3592 19.5805 34.5132 20.4104 34.5417C21.3433 34.5907 22.8702 34.6143 25 34.6143C27.1298 34.6143 28.6597 34.5901 29.5896 34.5417C30.4144 34.5117 31.2315 34.3742 32.0194 34.1326C32.8233 33.851 33.5539 33.3988 34.1592 32.8083C34.7611 32.2145 35.222 31.4976 35.509 30.7089C35.756 29.9359 35.896 29.1295 35.926 28.3251C35.976 27.4098 36 25.9118 36 23.8223C36 21.7328 35.984 20.2416 35.951 19.3391C35.9071 18.5197 35.7587 17.709 35.509 16.9259C35.222 16.1372 34.7611 15.4203 34.1592 14.8265C33.5539 14.236 32.8233 13.7838 32.0194 13.5022C31.2315 13.2606 30.4144 13.1231 29.5896 13.0931C28.6567 13.0441 27.1298 13.0205 25 13.0205V13.0323ZM24.2141 32.6523C22.9042 32.6523 21.8943 32.6366 21.1743 32.6042C20.2778 32.5894 19.387 32.4598 18.5246 32.2187C18.0445 32.0362 17.6085 31.7574 17.2445 31.4001C16.8805 31.0428 16.5966 30.615 16.4108 30.1439C16.165 29.2978 16.0329 28.4238 16.0178 27.5442C15.9848 26.8379 15.9678 25.8373 15.9678 24.562V23.0218C15.9678 21.7367 15.9848 20.7459 16.0178 20.0396C16.0269 19.1594 16.1591 18.2847 16.4108 17.4399C16.5876 16.9644 16.8683 16.5327 17.2331 16.1748C17.5978 15.8169 18.038 15.5415 18.5226 15.368C19.385 15.1269 20.2758 14.9973 21.1723 14.9825C21.8923 14.9501 22.9122 14.9335 24.2121 14.9335H25.7819C27.0918 14.9335 28.1017 14.9501 28.8217 14.9825C29.7187 14.9914 30.6103 15.1211 31.4714 15.368C31.9562 15.5414 32.3965 15.8167 32.7615 16.1746C33.1265 16.5325 33.4073 16.9643 33.5842 17.4399C33.8352 18.2855 33.9672 19.1567 33.9772 20.0396C34.0092 20.7138 34.0255 21.7079 34.0262 23.0218V24.562C34.0262 25.8471 34.0092 26.8379 33.9772 27.5442C33.9612 28.4242 33.8292 29.3002 33.5842 30.1439C33.3955 30.6136 33.1114 31.0408 32.7493 31.3995C32.3854 31.757 31.9495 32.036 31.4694 32.2187C30.6078 32.4632 29.7165 32.5929 28.8197 32.6042C28.133 32.6369 27.1198 32.6529 25.7799 32.6523H24.2101H24.2141ZM30.8935 16.662C30.622 16.6617 30.3566 16.7405 30.1309 16.8885C29.9052 17.0364 29.7293 17.2469 29.6257 17.493C29.5221 17.7392 29.4954 18.01 29.549 18.2711C29.6025 18.5322 29.734 18.7718 29.9266 18.9595C30.0514 19.0876 30.2017 19.1893 30.3682 19.2581C30.5347 19.327 30.7138 19.3616 30.8945 19.3597C31.0717 19.363 31.2475 19.329 31.4102 19.2599C31.5728 19.1909 31.7185 19.0884 31.8374 18.9595C32.087 18.7006 32.2393 18.366 32.2693 18.0109C32.2644 17.6544 32.1178 17.314 31.8609 17.0621C31.6039 16.8101 31.2567 16.6665 30.8935 16.662ZM25.004 18.3983C24.0372 18.392 23.0869 18.6432 22.2543 19.1253C21.4206 19.5995 20.7278 20.2792 20.2444 21.0971C19.7588 21.9163 19.503 22.8471 19.503 23.7948C19.503 24.7425 19.7588 25.6733 20.2444 26.4926C20.7267 27.3113 21.4198 27.9913 22.2543 28.4644C23.0893 28.9408 24.038 29.1918 25.004 29.1918C25.97 29.1918 26.9187 28.9408 27.7538 28.4644C28.5882 27.9913 29.2813 27.3113 29.7636 26.4926C30.2492 25.6733 30.505 24.7425 30.505 23.7948C30.505 22.8471 30.2492 21.9163 29.7636 21.0971C29.2802 20.2792 28.5874 19.5995 27.7538 19.1253C26.9211 18.6432 25.9708 18.392 25.004 18.3983ZM25.004 27.2666C24.5394 27.2663 24.0794 27.176 23.6504 27.001C23.2215 26.8259 22.832 26.5694 22.5042 26.2463C21.84 25.5963 21.466 24.7142 21.4643 23.7938C21.4646 23.338 21.5566 22.8867 21.7351 22.4659C21.9135 22.045 22.1749 21.6629 22.5042 21.3413C23.1668 20.6897 24.0659 20.3228 25.004 20.3211C25.4686 20.3214 25.9286 20.4117 26.3576 20.5867C26.7865 20.7618 27.176 21.0182 27.5038 21.3413C28.168 21.9913 28.542 22.8734 28.5437 23.7938C28.5434 24.2497 28.4514 24.7009 28.2729 25.1218C28.0945 25.5427 27.8331 25.9248 27.5038 26.2463C26.8412 26.898 25.9421 27.2649 25.004 27.2666Z" fill="white"/>
</svg>
