<svg width="27" height="28" viewBox="0 0 27 28" fill="none" xmlns="http://www.w3.org/2000/svg">
<path d="M25.9198 8.80588L16.2778 14.9758L14.2361 16.2823C13.7857 16.5705 13.2143 16.5705 12.7639 16.2823L10.7222 14.9758L1.08025 8.80587M25.9198 8.80588C25.9724 9.07665 26 9.35667 26 9.64328V22.4414C26 23.2523 25.779 24.0103 25.3954 24.6558C24.6643 25.8859 23.3425 26.7074 21.8333 26.7074H5.16667C3.65745 26.7074 2.33565 25.8859 1.60459 24.6558C1.22096 24.0103 1 23.2523 1 22.4414V9.64328C1 9.35666 1.02761 9.07665 1.08025 8.80587M25.9198 8.80588L16.7371 2.06533C14.802 0.64489 12.198 0.644891 10.2629 2.06533L1.08025 8.80587" stroke="#F3722C" stroke-width="2" stroke-linecap="round" stroke-linejoin="round"/>
</svg>
