<svg width="27" height="28" viewBox="0 0 27 28" fill="none" xmlns="http://www.w3.org/2000/svg">
<path d="M13.2118 17.7698L9.68327 14.1475C8.54753 12.9815 8.54753 11.0912 9.68327 9.92526C10.6983 8.88329 10.8209 7.23693 9.97205 6.04863L7.07479 1.99279C6.2171 0.792117 4.5187 0.658781 3.49314 1.71161C1.93176 3.3145 0.88631 5.43579 1.0099 7.69906C1.61367 18.7561 10.0255 26.1475 19.5383 26.6975C21.7199 26.8236 23.7515 25.7404 25.2965 24.1543C26.3373 23.0858 26.2055 21.3162 25.0185 20.4226L21.1009 17.4733C19.9433 16.6019 18.3396 16.7278 17.3246 17.7698C16.1889 18.9357 14.3475 18.9357 13.2118 17.7698Z" stroke="#F3722C" stroke-width="2" stroke-linecap="round" stroke-linejoin="round"/>
</svg>
